# xmcd
#
# Track frame offsets:
#	150
#	22070
#	43182
#	62800
#	83267
#	104042
#	119590
#	139160
#	169722
#	191712
#	213672
#	233992
#	253597
#
# Disc length: 3647 seconds
#
# Revision: 18
# Processed by: cddbd v1.5.2PL0 Copyright (c) Steve Scherf et al.
# Submitted via: EasyCDDAExtractor 15.3.0.1
#
DISCID=c10e3d0d
DTITLE=Whitney Houston - My Love Is Your Love
DYEAR=1998
DGENRE=Pop
TTITLE0=It's Not Right But It's Okay
TTITLE1=Heartbreak Hotel (Featuring Faith Evans And Kelly Price)
TTITLE2=My Love Is Your Love
TTITLE3=When You Believe (Duet With Mariah Carey) (From The Prince Of Egypt)
TTITLE4=If I Told You That
TTITLE5=In My Business (Featuring Missy ''Misdemeanor'' Elliott)
TTITLE6=I Learned From The Best
TTITLE7=Oh Yes
TTITLE8=Get It Back
TTITLE9=Until You Come Back
TTITLE10=I Bow Out
TTITLE11=You'll Never Stand Alone
TTITLE12=I Was Made To Love Him
EXTD=YEAR: 1998
EXTT0=
EXTT1=
EXTT2=
EXTT3=
EXTT4=
EXTT5=
EXTT6=
EXTT7=
EXTT8=
EXTT9=
EXTT10=
EXTT11=
EXTT12=
PLAYORDER=
